# xmcd
#
# Track frame offsets:
#	150
#	20362
#	33113
#	54027
#	65478
#	87315
#	99490
#	114495
#	128459
#	141123
#	154268
#	171778
#	186827
#	209029
#
# Disc length: 2957 seconds
#
# Revision: 2
# Processed by: cddbd v1.5.1PL0 Copyright (c) Steve Scherf et al.
# Submitted via: audiograbber 1.82.02
#
DISCID=b50b8b0e
DTITLE=Various Artist - Black And White Blues - Get Up And Play (1)
DYEAR=1900
DGENRE=Blues
TTITLE0=Luther Grosvenor - Crying Won't Bring You Back
TTITLE1=John Lee Williamson - Black Gal Blues
TTITLE2=Dave Peverett - If You Be My Baby
TTITLE3=Bukka White - Abberdeen Mississippi Blues
TTITLE4=Harvey Mandel - Long Grey Mare
TTITLE5=Big Joe Turner - Rebecca
TTITLE6=Muddy Waters - 32-20 Blues
TTITLE7=John Lee Hooker - Alberta
TTITLE8=Brownie McGhee - Step It Up And Go
TTITLE9=Sonny Terry - Blowing The Blues
TTITLE10=Savoy Brown - Sweet Loving Thing
TTITLE11=Hot Lips Page - The Blues Jumped The Rabbit
TTITLE12=Art hodes And His Blues Serenaders - Art Hodes And His Blues Serenader
TTITLE12=s
TTITLE13=Champion Jack Dupree - Gamblin Man Blues
EXTD=
EXTT0=
EXTT1=
EXTT2=
EXTT3=
EXTT4=
EXTT5=
EXTT6=
EXTT7=
EXTT8=
EXTT9=
EXTT10=
EXTT11=
EXTT12=
EXTT13=
PLAYORDER=
